<svg width="119" height="40" viewBox="0 0 119 40" fill="none" xmlns="http://www.w3.org/2000/svg">
<g clip-path="url(#clip0_401_146)" filter="url(#filter0_d_401_146)">
<path d="M47.3982 6.44836V11.4861H34.6666V6.44836H47.3982ZM37.1324 1.8136H44.0769V19.5718C44.0769 19.8405 44.123 20.0672 44.2153 20.2519C44.3075 20.4282 44.4501 20.5625 44.643 20.6549C44.8359 20.7389 45.0833 20.7809 45.3853 20.7809C45.5949 20.7809 45.8382 20.7557 46.115 20.7053C46.4001 20.6549 46.6098 20.6129 46.744 20.5793L47.7504 25.466C47.4401 25.5583 46.9956 25.6717 46.4169 25.806C45.8466 25.9404 45.1672 26.0285 44.3788 26.0705C42.7853 26.1545 41.4475 25.9908 40.3656 25.5793C39.2837 25.1595 38.4701 24.5004 37.925 23.602C37.3798 22.7036 37.1156 21.5785 37.1324 20.2267V1.8136Z" fill="#4EA8DE"/>
<path d="M59.3341 26.1461C57.2373 26.1461 55.4424 25.7305 53.9495 24.8992C52.4566 24.0596 51.3118 22.8925 50.515 21.398C49.7183 19.895 49.3199 18.1528 49.3199 16.1713C49.3199 14.1898 49.7183 12.4517 50.515 10.9572C51.3118 9.45424 52.4566 8.28715 53.9495 7.45591C55.4424 6.61629 57.2373 6.19647 59.3341 6.19647C61.4308 6.19647 63.2257 6.61629 64.7186 7.45591C66.2115 8.28715 67.3563 9.45424 68.1531 10.9572C68.9499 12.4517 69.3483 14.1898 69.3483 16.1713C69.3483 18.1528 68.9499 19.895 68.1531 21.398C67.3563 22.8925 66.2115 24.0596 64.7186 24.8992C63.2257 25.7305 61.4308 26.1461 59.3341 26.1461ZM59.3844 21.0076C59.9715 21.0076 60.4789 20.8102 60.9066 20.4156C61.3344 20.021 61.6657 19.4584 61.9005 18.728C62.1354 17.9975 62.2528 17.1285 62.2528 16.1209C62.2528 15.1049 62.1354 14.2359 61.9005 13.5139C61.6657 12.7834 61.3344 12.2208 60.9066 11.8262C60.4789 11.4316 59.9715 11.2343 59.3844 11.2343C58.7637 11.2343 58.2312 11.4316 57.7866 11.8262C57.3421 12.2208 57.0024 12.7834 56.7676 13.5139C56.5328 14.2359 56.4154 15.1049 56.4154 16.1209C56.4154 17.1285 56.5328 17.9975 56.7676 18.728C57.0024 19.4584 57.3421 20.021 57.7866 20.4156C58.2312 20.8102 58.7637 21.0076 59.3844 21.0076Z" fill="#4EA8DE"/>
<path d="M79.1819 26.0453C77.8064 26.0453 76.54 25.6843 75.3825 24.9622C74.2335 24.2401 73.3109 23.1444 72.6148 21.6751C71.9271 20.2057 71.5832 18.3543 71.5832 16.1209C71.5832 13.7867 71.9438 11.8892 72.6651 10.4282C73.3948 8.96725 74.3342 7.89672 75.4832 7.21662C76.6406 6.53652 77.8567 6.19647 79.1316 6.19647C80.0877 6.19647 80.9264 6.3644 81.6477 6.70025C82.369 7.02771 82.9729 7.46851 83.4593 8.02267C83.9458 8.56843 84.3148 9.16877 84.5664 9.82368H84.6671V0H91.6116V25.7934H84.7174V22.6196H84.5664C84.298 23.2746 83.9122 23.8623 83.409 24.3829C82.9142 24.895 82.3103 25.3023 81.5974 25.6045C80.8929 25.8984 80.0877 26.0453 79.1819 26.0453ZM81.7484 20.7053C82.3858 20.7053 82.9309 20.5206 83.3838 20.1511C83.8451 19.7733 84.1974 19.2443 84.4406 18.5642C84.6922 17.8757 84.818 17.0613 84.818 16.1209C84.818 15.1637 84.6922 14.3451 84.4406 13.665C84.1974 12.9765 83.8451 12.4517 83.3838 12.0907C82.9309 11.7212 82.3858 11.5365 81.7484 11.5365C81.1109 11.5365 80.5658 11.7212 80.1129 12.0907C79.6684 12.4517 79.3245 12.9765 79.0813 13.665C78.8464 14.3451 78.729 15.1637 78.729 16.1209C78.729 17.0781 78.8464 17.9009 79.0813 18.5894C79.3245 19.2695 79.6684 19.7943 80.1129 20.1637C80.5658 20.5248 81.1109 20.7053 81.7484 20.7053Z" fill="#5E60CE"/>
<path d="M104.331 26.1461C102.234 26.1461 100.439 25.7305 98.9461 24.8992C97.4532 24.0596 96.3083 22.8925 95.5116 21.398C94.7148 19.895 94.3164 18.1528 94.3164 16.1713C94.3164 14.1898 94.7148 12.4517 95.5116 10.9572C96.3083 9.45424 97.4532 8.28715 98.9461 7.45592C100.439 6.61629 102.234 6.19647 104.331 6.19647C106.427 6.19647 108.222 6.61629 109.715 7.45592C111.208 8.28715 112.353 9.45424 113.15 10.9572C113.946 12.4517 114.345 14.1898 114.345 16.1713C114.345 18.1528 113.946 19.895 113.15 21.398C112.353 22.8925 111.208 24.0596 109.715 24.8992C108.222 25.7305 106.427 26.1461 104.331 26.1461ZM104.381 21.0076C104.968 21.0076 105.475 20.8102 105.903 20.4156C106.331 20.021 106.662 19.4584 106.897 18.728C107.132 17.9975 107.249 17.1285 107.249 16.1209C107.249 15.105 107.132 14.2359 106.897 13.5139C106.662 12.7834 106.331 12.2208 105.903 11.8262C105.475 11.4316 104.968 11.2343 104.381 11.2343C103.76 11.2343 103.228 11.4316 102.783 11.8262C102.339 12.2208 101.999 12.7834 101.764 13.5139C101.529 14.2359 101.412 15.105 101.412 16.1209C101.412 17.1285 101.529 17.9975 101.764 18.728C101.999 19.4584 102.339 20.021 102.783 20.4156C103.228 20.8102 103.76 21.0076 104.381 21.0076Z" fill="#5E60CE"/>
<g clip-path="url(#clip1_401_146)">
<path d="M13.7615 2.68116C16.5298 6.19945 18.0076 10.5381 17.954 14.9901V16.0528L18.8674 16.6092C20.0475 17.3244 20.9276 18.4336 21.3474 19.7348C20.9789 19.4632 20.5933 19.2147 20.193 18.9909L17.7574 17.6219L17.3198 20.385C17.2818 20.6291 17.231 20.8712 17.1675 21.1101H10.3427C10.2413 20.7976 10.1588 20.485 10.0827 20.1599L9.53088 17.6594L7.28554 18.9097C6.91043 19.1197 6.54826 19.3514 6.20094 19.6036C6.62887 18.3174 7.49062 17.2144 8.64289 16.4779L9.51185 15.9215V14.9338C9.52752 10.4999 11.0231 6.19425 13.7678 2.68116H13.7615ZM13.7678 0.0805969C13.6255 0.080943 13.4881 0.13201 13.3809 0.224378L13.3238 0.274389C9.66633 4.30605 7.63537 9.51937 7.61537 14.9276C6.0633 15.92 4.91443 17.4185 4.36952 19.161C3.82462 20.9036 3.91833 22.7795 4.63428 24.4609C5.3885 22.8192 6.6493 21.454 8.23696 20.56C8.39618 21.2398 8.60823 21.9065 8.87123 22.5542C8.90458 22.6787 8.97851 22.789 9.08165 22.868C9.18479 22.9471 9.31142 22.9906 9.44208 22.9918H18.2458C18.4234 22.9918 18.601 22.823 18.6898 22.5605C18.9465 21.9447 19.1254 21.3001 19.2226 20.6413C20.8133 21.5315 22.0751 22.8978 22.8253 24.5421C23.5844 22.869 23.7019 20.9813 23.1561 19.2293C22.6102 17.4772 21.4379 15.9799 19.8569 15.0151C19.9196 9.57499 17.8994 4.31151 14.1991 0.274389C14.144 0.21367 14.0766 0.165041 14.0012 0.131656C13.9258 0.0982718 13.8441 0.080876 13.7615 0.0805969L13.7678 0.0805969Z" fill="#4EA8DE"/>
<path d="M13.7615 14.4087C13.2743 14.4087 12.7981 14.2665 12.3927 14.0001C11.9874 13.7337 11.6712 13.355 11.4839 12.9118C11.2966 12.4685 11.2466 11.9805 11.3403 11.5094C11.434 11.0382 11.6671 10.6048 12.0102 10.264C12.3534 9.92318 12.7912 9.69011 13.2686 9.59417C13.7459 9.49823 14.2414 9.54372 14.6926 9.72491C15.1438 9.90609 15.5304 10.2149 15.8038 10.6123C16.0772 11.0097 16.2251 11.478 16.2288 11.9582C16.2364 12.2693 16.1817 12.5789 16.0679 12.8692C15.954 13.1595 15.7833 13.4249 15.5653 13.6501C15.3474 13.8754 15.0865 14.0561 14.7977 14.182C14.5089 14.3078 14.1977 14.3764 13.882 14.3837C13.8421 14.39 13.8014 14.39 13.7615 14.3837V14.4087Z" fill="#4EA8DE"/>
<path d="M17.1929 24.5484C17.0342 24.5434 16.8761 24.5697 16.7278 24.6257C16.5796 24.6817 16.4441 24.7664 16.3295 24.8747C16.2149 24.983 16.1234 25.1128 16.0604 25.2564C15.9973 25.4001 15.964 25.5547 15.9624 25.7111V29.3994C15.9624 29.7211 16.092 30.0296 16.3228 30.257C16.5536 30.4844 16.8665 30.6122 17.1929 30.6122C17.5192 30.6122 17.8322 30.4844 18.063 30.257C18.2937 30.0296 18.4234 29.7211 18.4234 29.3994V25.7612C18.4285 25.6053 18.402 25.4499 18.3455 25.3042C18.2891 25.1585 18.2037 25.0253 18.0945 24.9124C17.9853 24.7996 17.8544 24.7092 17.7094 24.6467C17.5644 24.5842 17.4082 24.5508 17.25 24.5484H17.1929Z" fill="#5E60CE"/>
<path d="M10.3428 24.5484C10.1814 24.54 10.0199 24.5636 9.86797 24.618C9.71604 24.6723 9.57676 24.7562 9.4584 24.8647C9.34005 24.9732 9.24505 25.104 9.17905 25.2494C9.11305 25.3949 9.0774 25.5519 9.07422 25.7111V29.3994C9.07422 29.7211 9.20386 30.0295 9.43462 30.257C9.66538 30.4844 9.97836 30.6122 10.3047 30.6122C10.6311 30.6122 10.944 30.4844 11.1748 30.257C11.4056 30.0295 11.5352 29.7211 11.5352 29.3994V25.7611C11.5403 25.6052 11.5138 25.4499 11.4573 25.3042C11.4009 25.1585 11.3156 25.0253 11.2063 24.9124C11.0971 24.7995 10.9662 24.7092 10.8212 24.6467C10.6762 24.5842 10.52 24.5508 10.3618 24.5484H10.3428Z" fill="#5E60CE"/>
<path d="M13.6727 24.5484C13.5144 24.545 13.357 24.5725 13.2095 24.6291C13.062 24.6858 12.9273 24.7705 12.813 24.8785C12.6988 24.9865 12.6072 25.1156 12.5436 25.2584C12.4799 25.4013 12.4455 25.5551 12.4422 25.7111V30.7935C12.4422 31.1151 12.5718 31.4236 12.8026 31.651C13.0334 31.8785 13.3463 32.0062 13.6727 32.0062C13.999 32.0062 14.312 31.8785 14.5428 31.651C14.7735 31.4236 14.9032 31.1151 14.9032 30.7935V25.7924C14.9083 25.6365 14.8818 25.4812 14.8253 25.3354C14.7689 25.1897 14.6835 25.0565 14.5743 24.9437C14.4651 24.8308 14.3342 24.7405 14.1892 24.678C14.0442 24.6155 13.888 24.582 13.7298 24.5796L13.6727 24.5484Z" fill="#5E60CE"/>
</g>
</g>
<defs>
<filter id="filter0_d_401_146" x="0" y="0" width="118.345" height="40" filterUnits="userSpaceOnUse" color-interpolation-filters="sRGB">
<feFlood flood-opacity="0" result="BackgroundImageFix"/>
<feColorMatrix in="SourceAlpha" type="matrix" values="0 0 0 0 0 0 0 0 0 0 0 0 0 0 0 0 0 0 127 0" result="hardAlpha"/>
<feOffset dy="4"/>
<feGaussianBlur stdDeviation="2"/>
<feComposite in2="hardAlpha" operator="out"/>
<feColorMatrix type="matrix" values="0 0 0 0 0 0 0 0 0 0 0 0 0 0 0 0 0 0 0.25 0"/>
<feBlend mode="normal" in2="BackgroundImageFix" result="effect1_dropShadow_401_146"/>
<feBlend mode="normal" in="SourceGraphic" in2="effect1_dropShadow_401_146" result="shape"/>
</filter>
<clipPath id="clip0_401_146">
<rect width="110.345" height="32" fill="white" transform="translate(4)"/>
</clipPath>
<clipPath id="clip1_401_146">
<rect width="19.4849" height="31.9194" fill="white" transform="translate(4 0.0805969)"/>
</clipPath>
</defs>
</svg>
